<svg xmlns="http://www.w3.org/2000/svg" width="32" height="32" viewBox="0 0 32 32" fill="none">
  <g>
    <path opacity="0.5" d="M27.3805 27.3808C29.3332 25.4282 29.3332 22.2854 29.3332 16.0001C29.3332 9.71471 29.3332 6.57202 27.3805 4.61941C25.428 2.66678 22.2852 2.66678 15.9998 2.66678C9.71444 2.66678 6.57174 2.66678 4.61913 4.61941C2.6665 6.57202 2.6665 9.71471 2.6665 16.0001C2.6665 22.2854 2.6665 25.4282 4.61913 27.3808C6.57174 29.3334 9.71444 29.3334 15.9998 29.3334C22.2852 29.3334 25.428 29.3334 27.3805 27.3808Z" fill="currentColor"/>
    <path d="M23.2728 9.20475C23.7122 9.53946 23.797 10.1669 23.4623 10.6062L14.3194 22.6063C14.1374 22.8452 13.8575 22.9896 13.5572 22.9996C13.2571 23.0096 12.9682 22.8841 12.7707 22.6579L8.58019 17.8579C8.21698 17.4417 8.25981 16.8101 8.67586 16.4469C9.0919 16.0836 9.72362 16.1265 10.0868 16.5425L13.4714 20.4193L21.8714 9.39414C22.2062 8.95483 22.8336 8.87003 23.2728 9.20475Z" fill="currentColor"/>
  </g>
</svg>