<svg width="24" height="24" viewBox="0 0 24 24" fill="none" xmlns="http://www.w3.org/2000/svg">
<path opacity="0.5" d="M5.17157 3.17218C4 4.34376 4 6.22937 4 10.0006V14.0006C4 17.7718 4 19.6575 5.17157 20.829C6.34315 22.0006 8.22876 22.0006 12 22.0006C15.7712 22.0006 17.6569 22.0006 18.8284 20.829C20 19.6575 20 17.7718 20 14.0006V10.0006C20 6.22937 20 4.34376 18.8284 3.17218C17.6569 2.00061 15.7712 2.00061 12 2.00061C8.22876 2.00061 6.34315 2.00061 5.17157 3.17218Z" fill="#1967F2"/>
<path d="M9 4.25061C8.58579 4.25061 8.25 4.5864 8.25 5.00061C8.25 5.41482 8.58579 5.75061 9 5.75061H15C15.4142 5.75061 15.75 5.41482 15.75 5.00061C15.75 4.5864 15.4142 4.25061 15 4.25061H9Z" fill="#1967F2"/>
<path d="M12 19.0006C13.1046 19.0006 14 18.1052 14 17.0006C14 15.896 13.1046 15.0006 12 15.0006C10.8954 15.0006 10 15.896 10 17.0006C10 18.1052 10.8954 19.0006 12 19.0006Z" fill="#1967F2"/>
</svg>
