<svg width="24" height="24" viewBox="0 0 24 24" fill="none" xmlns="http://www.w3.org/2000/svg">
<path d="M7.5 17.0006C6.56538 17.0006 6.09808 17.0006 5.75 16.7996C5.52197 16.668 5.33261 16.4786 5.20096 16.2506C5 15.9025 5 15.4352 5 14.5006V5.50061C5 4.56599 5 4.09869 5.20096 3.75061C5.33261 3.52258 5.52197 3.33322 5.75 3.20157C6.09808 3.00061 6.56538 3.00061 7.5 3.00061C8.43462 3.00061 8.90192 3.00061 9.25 3.20157C9.47803 3.33322 9.66739 3.52258 9.79904 3.75061C10 4.09869 10 4.56599 10 5.50061V14.5006C10 15.4352 10 15.9025 9.79904 16.2506C9.66739 16.4786 9.47803 16.668 9.25 16.7996C8.90192 17.0006 8.43462 17.0006 7.5 17.0006Z" fill="#1967F2"/>
<path d="M16.5 17.0006C15.5654 17.0006 15.0981 17.0006 14.75 16.7996C14.522 16.668 14.3326 16.4786 14.201 16.2506C14 15.9025 14 15.4352 14 14.5006V8.50061C14 7.56599 14 7.09869 14.201 6.75061C14.3326 6.52258 14.522 6.33322 14.75 6.20157C15.0981 6.00061 15.5654 6.00061 16.5 6.00061C17.4346 6.00061 17.9019 6.00061 18.25 6.20157C18.478 6.33322 18.6674 6.52258 18.799 6.75061C19 7.09869 19 7.56599 19 8.50061V14.5006C19 15.4352 19 15.9025 18.799 16.2506C18.6674 16.4786 18.478 16.668 18.25 16.7996C17.9019 17.0006 17.4346 17.0006 16.5 17.0006Z" fill="#1967F2"/>
<g opacity="0.5">
<path fill-rule="evenodd" clip-rule="evenodd" d="M1.25 21.0006C1.25 20.5864 1.58579 20.2506 2 20.2506H22C22.4142 20.2506 22.75 20.5864 22.75 21.0006C22.75 21.4148 22.4142 21.7506 22 21.7506H2C1.58579 21.7506 1.25 21.4148 1.25 21.0006Z" fill="#1967F2"/>
</g>
</svg>
