<svg xmlns="http://www.w3.org/2000/svg" width="17" height="16" viewBox="0 0 17 16" fill="none">
  <path opacity="0.5" fill-rule="evenodd" clip-rule="evenodd" d="M2.5 9.50012C2.77614 9.50012 3 9.72399 3 10.0001C3 10.9571 3.00106 11.6245 3.06877 12.1281C3.13453 12.6173 3.25483 12.8763 3.43934 13.0608C3.62385 13.2453 3.8829 13.3656 4.37208 13.4314C4.87565 13.4991 5.54306 13.5001 6.5 13.5001H10.5C11.4569 13.5001 12.1243 13.4991 12.6279 13.4314C13.1171 13.3656 13.3761 13.2453 13.5607 13.0608C13.7452 12.8763 13.8655 12.6173 13.9313 12.1281C13.9989 11.6245 14 10.9571 14 10.0001C14 9.72399 14.2239 9.50012 14.5 9.50012C14.7761 9.50012 15 9.72399 15 10.0001V10.0367C15 10.9485 15 11.6833 14.9223 12.2613C14.8417 12.8614 14.6691 13.3666 14.2678 13.7679C13.8665 14.1692 13.3613 14.3418 12.7612 14.4225C12.1832 14.5001 11.4483 14.5001 10.5366 14.5001H6.46342C5.55169 14.5001 4.81681 14.5001 4.23883 14.4225C3.63876 14.3418 3.13351 14.1692 2.73223 13.7679C2.33095 13.3666 2.15836 12.8614 2.07768 12.2613C1.99997 11.6833 1.99999 10.9485 2 10.0367C2 10.0245 2 10.0123 2 10.0001C2 9.72399 2.22386 9.50012 2.5 9.50012Z" fill="currentColor"/>
  <path fill-rule="evenodd" clip-rule="evenodd" d="M8.49968 11.1668C8.64008 11.1668 8.77394 11.1078 8.86868 11.0042L11.5353 8.08752C11.7217 7.88372 11.7075 7.56746 11.5037 7.38112C11.2999 7.19479 10.9837 7.20892 10.7973 7.41272L8.99968 9.37892V2.00012C8.99968 1.72398 8.77581 1.50012 8.49968 1.50012C8.22354 1.50012 7.99968 1.72398 7.99968 2.00012V9.37892L6.20203 7.41272C6.01569 7.20892 5.69943 7.19479 5.49563 7.38112C5.29183 7.56746 5.27766 7.88372 5.46399 8.08752L8.13068 11.0042C8.22541 11.1078 8.35928 11.1668 8.49968 11.1668Z" fill="currentColor"/>
</svg>