<svg xmlns="http://www.w3.org/2000/svg" width="32" height="32" viewBox="0 0 32 32" fill="none">
  <g>
    <path opacity="0.5" d="M13.3331 26.6668H18.6665C23.6947 26.6668 26.2089 26.6668 27.771 25.1047C29.3331 23.5427 29.3331 21.0284 29.3331 16.0001C29.3331 15.4109 29.3309 13.8561 29.3283 13.3335H2.66674C2.66422 13.8561 2.66642 15.4109 2.66642 16.0001C2.66642 21.0284 2.66642 23.5427 4.22851 25.1047C5.79062 26.6668 8.30476 26.6668 13.3331 26.6668Z" fill="currentColor"/>
    <path d="M7 18.0001C7 17.4479 7.44772 17.0001 8 17.0001H10.6667C11.2189 17.0001 11.6667 17.4479 11.6667 18.0001C11.6667 18.5524 11.2189 19.0001 10.6667 19.0001H8C7.44772 19.0001 7 18.5524 7 18.0001Z" fill="currentColor"/>
    <path d="M7 22.0001C7 21.4479 7.44772 21.0001 8 21.0001H13.3333C13.8856 21.0001 14.3333 21.4479 14.3333 22.0001C14.3333 22.5524 13.8856 23.0001 13.3333 23.0001H8C7.44772 23.0001 7 22.5524 7 22.0001Z" fill="currentColor"/>
    <path fill-rule="evenodd" clip-rule="evenodd" d="M22.9295 16.3912C22.4991 16.3333 21.97 16.3335 21.3928 16.3335H21.2736C20.6964 16.3335 20.1673 16.3333 19.7369 16.3912C19.2629 16.4549 18.762 16.6048 18.35 17.0169C17.9378 17.4289 17.788 17.9299 17.7242 18.4039C17.6664 18.8343 17.6664 19.3633 17.6665 19.9405V20.0001V20.0599C17.6664 20.6369 17.6664 21.166 17.7242 21.5964C17.788 22.0704 17.9378 22.5713 18.35 22.9833C18.762 23.3955 19.2629 23.5453 19.7369 23.6091C20.1673 23.6669 20.6964 23.6669 21.2736 23.6668H21.3332H21.3928C21.97 23.6669 22.4991 23.6669 22.9295 23.6091C23.4035 23.5453 23.9044 23.3955 24.3164 22.9833C24.7285 22.5713 24.8784 22.0704 24.9421 21.5964C25 21.166 25 20.6369 24.9998 20.0597V19.9405C25 19.3633 25 18.8343 24.9421 18.4039C24.8784 17.9299 24.7285 17.4289 24.3164 17.0169C23.9044 16.6048 23.4035 16.4549 22.9295 16.3912ZM19.7674 18.4293L19.7642 18.4311L19.7624 18.4344C19.761 18.4369 19.7588 18.4413 19.7561 18.4481C19.7441 18.4772 19.7237 18.5416 19.7064 18.6704C19.6686 18.9513 19.6665 19.3433 19.6665 20.0001C19.6665 20.6569 19.6686 21.0489 19.7064 21.3299C19.7237 21.4587 19.7441 21.5232 19.7561 21.5521C19.7577 21.5563 19.7592 21.5595 19.7604 21.562L19.7624 21.5659L19.7641 21.5692L19.7674 21.5709C19.77 21.5724 19.7744 21.5745 19.7812 21.5772C19.8101 21.5892 19.8746 21.6096 20.0034 21.6269C20.2844 21.6647 20.6764 21.6668 21.3332 21.6668C21.99 21.6668 22.382 21.6647 22.6629 21.6269C22.7917 21.6096 22.8562 21.5892 22.8852 21.5772C22.892 21.5745 22.8964 21.5724 22.8989 21.5709L22.9022 21.5692L22.904 21.5659C22.9053 21.5633 22.9076 21.5589 22.9102 21.5521C22.9222 21.5232 22.9426 21.4587 22.96 21.3299C22.9977 21.0489 22.9998 20.6569 22.9998 20.0001C22.9998 19.3433 22.9977 18.9513 22.96 18.6704C22.9426 18.5416 22.9222 18.4772 22.9102 18.4481C22.9076 18.4413 22.9053 18.4369 22.904 18.4344L22.9022 18.4311L22.8989 18.4293C22.8964 18.428 22.892 18.4257 22.8852 18.4231C22.8562 18.4111 22.7917 18.3907 22.6629 18.3733C22.382 18.3356 21.99 18.3335 21.3332 18.3335C20.6764 18.3335 20.2844 18.3356 20.0034 18.3733C19.8746 18.3907 19.8101 18.4111 19.7812 18.4231C19.7744 18.4257 19.77 18.428 19.7674 18.4293Z" fill="currentColor"/>
    <path d="M13.3263 5.33347H18.6734C23.7146 5.33347 26.2353 5.33347 27.8014 6.82117C28.929 7.89235 29.2448 9.43356 29.3332 12.0001V13.3335H2.6665V12.0001C2.7549 9.43356 3.07064 7.89235 4.19825 6.82117C5.76437 5.33347 8.28501 5.33347 13.3263 5.33347Z" fill="currentColor"/>
  </g>
</svg>