<svg xmlns="http://www.w3.org/2000/svg" width="16" height="21" viewBox="0 0 16 21" fill="none">
  <path d="M10 2.5C10 3.88071 8.8807 5 7.5 5C6.1193 5 5 3.88071 5 2.5C5 1.11929 6.1193 0 7.5 0C8.8807 0 10 1.11929 10 2.5Z" fill="currentColor"/>
  <path fill-rule="evenodd" clip-rule="evenodd" d="M14.9999 5.25C15.4141 5.25 15.7499 5.58579 15.7499 6V8.4943C15.7499 8.4978 15.7499 8.5014 15.7499 8.5049V20C15.7499 20.4142 15.4141 20.75 14.9999 20.75C14.5857 20.75 14.2499 20.4142 14.2499 20V10.1014C13.7654 10.5057 13.3799 10.8203 12.943 10.9798C12.3339 11.2022 11.6659 11.2022 11.0568 10.9798C10.6041 10.8146 10.2067 10.4828 9.69709 10.0574C9.66649 10.0319 9.63549 10.006 9.60409 9.9798L9.52279 9.912C9.29129 9.7191 9.20049 9.6439 9.05279 9.5412C8.79529 9.362 8.29649 9.1095 7.99969 9.0081C7.94519 8.9894 7.90349 8.9746 7.87139 8.9625C7.86559 8.9602 7.85939 8.9578 7.85289 8.9553C7.67349 8.911 7.55699 8.8829 7.46699 8.8656C7.41649 8.856 7.38829 8.8526 7.37529 8.8515C7.37079 8.8529 7.36449 8.8552 7.35619 8.8586C7.32999 8.8695 7.29689 8.8872 7.26239 8.9116C7.22789 8.9359 7.19999 8.9611 7.18099 8.9822C7.17209 8.992 7.16709 8.9987 7.16479 9.0019C7.16199 9.0092 7.15819 9.0215 7.15329 9.0496C7.14379 9.1029 7.13629 9.1738 7.12159 9.3208L6.95939 10.9425C6.86589 11.8771 6.85529 12.127 6.92059 12.3356C6.95879 12.4577 7.01549 12.5732 7.08869 12.6781C7.21379 12.8574 7.41799 13.0019 8.21449 13.4997C8.24999 13.5219 8.28519 13.5438 8.31979 13.5655C9.11569 14.0625 9.66699 14.4067 10.0653 14.9015C10.265 15.1497 10.4323 15.4222 10.5631 15.7127C10.824 16.2918 10.8813 16.9392 10.9641 17.8739C10.9677 17.9146 10.9714 17.9558 10.9751 17.9976L11.1473 19.9335C11.184 20.3461 10.8793 20.7103 10.4668 20.747C10.0542 20.7838 9.68999 20.479 9.65319 20.0665L9.48099 18.1306C9.38249 17.0236 9.33929 16.6479 9.19549 16.3287C9.11699 16.1545 9.01659 15.9909 8.89679 15.842C8.67729 15.5693 8.36189 15.3607 7.41949 14.7717C7.38179 14.7481 7.34459 14.7249 7.30779 14.702C6.67799 14.3092 6.18209 14 5.85874 13.5368C5.69764 13.306 5.57292 13.0519 5.48893 12.7833C5.32033 12.2441 5.37906 11.6626 5.45364 10.9242C5.458 10.8811 5.46241 10.8374 5.46683 10.7932L5.62899 9.1716C5.63058 9.1557 5.63214 9.1397 5.63372 9.1236C5.65626 8.8934 5.68114 8.6394 5.80321 8.3722C5.93926 8.0745 6.17699 7.84157 6.39779 7.68582C6.61859 7.53007 6.91769 7.38431 7.24389 7.35606C7.42789 7.34012 7.59969 7.36376 7.74939 7.39245C7.89309 7.42 8.06459 7.46243 8.25619 7.50983L8.28159 7.51611C8.28159 7.51611 8.29149 7.5186 8.30039 7.52104C8.30499 7.5223 8.31549 7.5252 8.32849 7.5293C8.33719 7.53204 8.37069 7.54259 8.41099 7.56068C8.41619 7.56301 8.42289 7.56609 8.43089 7.56995C8.44379 7.57455 8.46139 7.58069 8.48479 7.58868C8.91359 7.73524 9.53759 8.0511 9.90949 8.3099C10.1146 8.4526 10.2516 8.5668 10.471 8.7496L10.483 8.7597L10.5644 8.8275C11.2129 9.3679 11.397 9.5072 11.5712 9.5708C11.8481 9.6719 12.1517 9.6719 12.4286 9.5708C12.6028 9.5072 12.7869 9.3679 13.4354 8.8275L14.2499 8.1487V6C14.2499 5.58579 14.5857 5.25 14.9999 5.25ZM8.36949 8.9465C8.36949 8.9465 8.37179 8.9456 8.37489 8.9444C8.36669 8.9476 8.36319 8.9488 8.36949 8.9465ZM7.82889 7.54727L7.83099 7.54647C7.83539 7.54473 7.84419 7.54141 7.83779 7.54382C7.83779 7.54382 7.83359 7.54541 7.82889 7.54727Z" fill="currentColor"/>
  <g opacity="0.5">
    <path d="M4.71151 7.76303C4.8425 8.156 4.63013 8.5807 4.23717 8.7117L2.56517 9.269C2.07836 9.4313 1.75 9.8869 1.75 10.4C1.75 10.4838 1.79731 10.5603 1.87221 10.5978L4.33541 11.8294C4.70589 12.0146 4.85606 12.4651 4.67082 12.8356C4.48558 13.2061 4.03507 13.3563 3.66459 13.171L1.20139 11.9394C0.61832 11.6479 0.25 11.0519 0.25 10.4C0.25 9.2412 0.9915 8.2125 2.09083 7.84602L3.76283 7.28869C4.15579 7.15771 4.58053 7.37008 4.71151 7.76303Z" fill="currentColor"/>
    <path d="M5.41611 14.8762C5.76075 15.1059 5.85388 15.5716 5.62412 15.9162L2.62412 20.4162C2.39435 20.7609 1.9287 20.854 1.58405 20.6242C1.23941 20.3945 1.14628 19.9288 1.37604 19.5842L4.37604 15.0842C4.60581 14.7395 5.07146 14.6464 5.41611 14.8762Z" fill="currentColor"/>
  </g>
</svg>