<svg xmlns="http://www.w3.org/2000/svg" width="17" height="16" viewBox="0 0 17 16" fill="none">
  <path opacity="0.5" d="M14.3995 5.8087C15.4233 4.7849 15.4233 3.12498 14.3995 2.10118C13.3757 1.07738 11.7157 1.07738 10.6919 2.10118L10.1006 2.69254C10.1087 2.717 10.1171 2.74178 10.1258 2.7669C10.3425 3.39166 10.7515 4.21067 11.5209 4.98001C12.2902 5.74935 13.1092 6.15832 13.734 6.37508C13.759 6.38375 13.7837 6.39211 13.808 6.40017L14.3995 5.8087Z" fill="currentColor"/>
  <path d="M10.1254 2.66667L10.0999 2.69213C10.108 2.71659 10.1164 2.74138 10.1251 2.76649C10.3419 3.39125 10.7509 4.21026 11.5202 4.97961C12.2895 5.74895 13.1085 6.15791 13.7333 6.37467C13.7581 6.38327 13.7825 6.39156 13.8067 6.39956L8.09974 12.1065C7.71501 12.4913 7.52254 12.6837 7.31047 12.8491C7.06022 13.0443 6.78947 13.2117 6.50299 13.3482C6.26014 13.4639 6.00201 13.5499 5.48579 13.722L2.76357 14.6295C2.50953 14.7141 2.22945 14.648 2.04009 14.4587C1.85074 14.2693 1.78463 13.9892 1.86931 13.7352L2.77671 11.0129C2.94879 10.4967 3.03483 10.2386 3.15057 9.99574C3.2871 9.70927 3.45443 9.43854 3.64961 9.18827C3.81505 8.97621 4.00744 8.78381 4.39217 8.39907L10.1254 2.66667Z" fill="currentColor"/>
</svg>