<svg xmlns="http://www.w3.org/2000/svg" width="17" height="16" viewBox="0 0 17 16" fill="none">
  <path fill-rule="evenodd" clip-rule="evenodd" d="M7.1042 1.64657C6.90894 1.45131 6.59236 1.45131 6.3971 1.64657C6.20184 1.84183 6.20184 2.15841 6.3971 2.35367L6.87688 2.83345H6.75065C3.89718 2.83345 1.58398 5.14665 1.58398 8.00012C1.58398 10.8536 3.89739 13.1668 6.75084 13.1668H7.08398C7.36012 13.1668 7.58398 12.9429 7.58398 12.6668C7.58398 12.3907 7.36012 12.1668 7.08398 12.1668H6.75084C4.44962 12.1668 2.58398 10.3013 2.58398 8.00012C2.58398 5.69893 4.44946 3.83345 6.75065 3.83345H8.08398C8.28618 3.83345 8.46852 3.71163 8.54592 3.52479C8.62332 3.33796 8.58052 3.1229 8.43752 2.9799L7.1042 1.64657Z" fill="currentColor"/>
  <path opacity="0.5" d="M10.416 2.83345C10.1399 2.83345 9.91602 3.05731 9.91602 3.33345C9.91602 3.60959 10.1399 3.83345 10.416 3.83345H10.7494C13.0506 3.83345 14.916 5.69893 14.916 8.00012C14.916 10.3013 13.0506 12.1668 10.7494 12.1668H9.41602C9.21382 12.1668 9.03149 12.2886 8.95409 12.4754C8.87669 12.6622 8.91949 12.8773 9.06249 13.0203L10.3958 14.3537C10.5911 14.5489 10.9077 14.5489 11.103 14.3537C11.2982 14.1584 11.2982 13.8418 11.103 13.6466L10.6232 13.1668H10.7494C13.6028 13.1668 15.916 10.8536 15.916 8.00012C15.916 5.14664 13.6028 2.83345 10.7494 2.83345H10.416Z" fill="currentColor"/>
</svg>