<svg xmlns="http://www.w3.org/2000/svg" width="17" height="16" viewBox="0 0 17 16" fill="none">
  <path d="M12.5729 11.1784C12.1487 11.2798 11.7059 11.3335 11.2507 11.3335C8.12105 11.3335 5.58399 8.79639 5.58399 5.6668C5.58399 5.34448 5.61089 5.02845 5.66259 4.72083C5.63847 4.74403 5.61353 4.76541 5.58728 4.78533C5.40021 4.92735 5.16722 4.98007 4.70125 5.0855L4.27701 5.18149C2.63723 5.5525 1.81733 5.73801 1.62227 6.36529C1.4272 6.99259 1.98615 7.64619 3.10405 8.95339L3.39327 9.29159C3.71093 9.66306 3.86977 9.84879 3.94123 10.0786C4.01269 10.3084 3.98867 10.5562 3.94064 11.0519L3.89692 11.5031C3.72791 13.2472 3.6434 14.1193 4.15409 14.5069C4.66477 14.8946 5.43243 14.5412 6.96779 13.8343L7.36499 13.6513C7.80125 13.4505 8.01939 13.3501 8.25065 13.3501C8.48192 13.3501 8.70005 13.4505 9.13632 13.6513L9.53352 13.8343C11.0689 14.5412 11.8365 14.8946 12.3473 14.5069C12.8579 14.1193 12.7734 13.2472 12.6044 11.5031L12.5729 11.1784Z" fill="currentColor"/>
  <path opacity="0.5" d="M6.35276 3.6057L6.13429 3.9976C5.89433 4.42808 5.77435 4.64331 5.58728 4.78532C5.61353 4.76539 5.63846 4.74402 5.66259 4.72082C5.61089 5.02844 5.58398 5.34447 5.58398 5.66679C5.58398 8.79638 8.12101 11.3335 11.2507 11.3335C11.7059 11.3335 12.1487 11.2798 12.5729 11.1784L12.5607 11.0519C12.5126 10.5562 12.4886 10.3084 12.5601 10.0786C12.6315 9.84878 12.7903 9.66305 13.108 9.29158L13.3973 8.95338C14.5151 7.64618 15.0741 6.99252 14.879 6.36527C14.6839 5.738 13.8641 5.55249 12.2243 5.18147L11.8001 5.08548C11.3341 4.98005 11.1011 4.92734 10.914 4.78532C10.7269 4.64331 10.6069 4.42808 10.367 3.99761L10.1485 3.6057C9.30408 2.09086 8.88188 1.33345 8.25068 1.33345C7.61941 1.33345 7.19721 2.09087 6.35276 3.6057Z" fill="currentColor"/>
</svg>