<svg xmlns="http://www.w3.org/2000/svg" width="100%" height="auto" viewBox="0 0 24 24" fill="none">
  <path d="M3 6.52393C3 6.12944 3.32671 5.80964 3.72973 5.80964H8.51787C8.52437 4.96842 8.61554 3.81516 9.45037 3.0168C10.1074 2.38851 11.0081 2.00012 12 2.00012C12.9919 2.00012 13.8926 2.38851 14.5496 3.0168C15.3844 3.81516 15.4756 4.96842 15.4821 5.80964H20.2703C20.6733 5.80964 21 6.12944 21 6.52393C21 6.91842 20.6733 7.23822 20.2703 7.23822H3.72973C3.32671 7.23822 3 6.91842 3 6.52393Z" fill="currentColor"/>
  <path opacity="0.5" d="M11.5956 22.0002H12.4044C15.1871 22.0002 16.5785 22.0002 17.4831 21.1143C18.3878 20.2284 18.4803 18.7752 18.6654 15.8687L18.9321 11.6808C19.0326 10.1038 19.0828 9.31536 18.6289 8.8157C18.1751 8.31604 17.4087 8.31604 15.876 8.31604H8.12405C6.59127 8.31604 5.82488 8.31604 5.37105 8.8157C4.91722 9.31536 4.96744 10.1038 5.06788 11.6808L5.33459 15.8687C5.5197 18.7752 5.61225 20.2284 6.51689 21.1143C7.42153 22.0002 8.81289 22.0002 11.5956 22.0002Z" fill="currentColor"/>
  <path fill-rule="evenodd" clip-rule="evenodd" d="M9.42543 11.4816C9.83759 11.4382 10.2051 11.7548 10.2463 12.1886L10.7463 17.4518C10.7875 17.8856 10.4868 18.2725 10.0747 18.3159C9.66253 18.3593 9.29499 18.0427 9.25378 17.6089L8.75378 12.3457C8.71256 11.9119 9.01327 11.525 9.42543 11.4816Z" fill="currentColor"/>
  <path fill-rule="evenodd" clip-rule="evenodd" d="M14.5747 11.4816C14.9868 11.525 15.2875 11.9119 15.2463 12.3457L14.7463 17.6089C14.7051 18.0427 14.3376 18.3593 13.9254 18.3159C13.5133 18.2725 13.2126 17.8856 13.2538 17.4518L13.7538 12.1886C13.795 11.7548 14.1625 11.4382 14.5747 11.4816Z" fill="currentColor"/>
</svg>