<svg xmlns="http://www.w3.org/2000/svg" width="100%" height="auto" viewBox="0 0 16 16" fill="none">
  <path d="M10.6673 3.99967C10.6673 5.47243 9.47338 6.66634 8.00065 6.66634C6.52789 6.66634 5.33398 5.47243 5.33398 3.99967C5.33398 2.52691 6.52789 1.33301 8.00065 1.33301C9.47338 1.33301 10.6673 2.52691 10.6673 3.99967Z" fill="currentColor"/>
  <path fill-rule="evenodd" clip-rule="evenodd" d="M10.9993 14.6667C9.89942 14.6667 9.34942 14.6667 9.00775 14.3249C8.66602 13.9833 8.66602 13.4333 8.66602 12.3333C8.66602 11.2334 8.66602 10.6834 9.00775 10.3417C9.34942 10 9.89942 10 10.9993 10C12.0993 10 12.6493 10 12.9909 10.3417C13.3327 10.6834 13.3327 11.2334 13.3327 12.3333C13.3327 13.4333 13.3327 13.9833 12.9909 14.3249C12.6493 14.6667 12.0993 14.6667 10.9993 14.6667ZM12.3113 11.8305C12.4632 11.6787 12.4632 11.4325 12.3113 11.2806C12.1595 11.1287 11.9133 11.1287 11.7614 11.2806L10.4808 12.5611L10.2373 12.3176C10.0854 12.1657 9.83922 12.1657 9.68735 12.3176C9.53548 12.4695 9.53548 12.7157 9.68735 12.8676L10.2058 13.3861C10.3577 13.538 10.6039 13.538 10.7558 13.3861L12.3113 11.8305Z" fill="currentColor"/>
  <path opacity="0.5" d="M9.65095 14.6142C9.16688 14.6489 8.61908 14.667 7.99935 14.667C2.66602 14.667 2.66602 13.3239 2.66602 11.667C2.66602 10.0101 5.05383 8.66699 7.99935 8.66699C9.91975 8.66699 11.6031 9.23793 12.5421 10.0945C12.198 10.0003 11.7151 10.0003 10.9993 10.0003C9.89942 10.0003 9.34942 10.0003 9.00775 10.3421C8.66602 10.6837 8.66602 11.2337 8.66602 12.3337C8.66602 13.4336 8.66602 13.9836 9.00775 14.3253C9.16608 14.4837 9.36915 14.5686 9.65095 14.6142Z" fill="currentColor"/>
</svg>