<svg width="24" height="24" viewBox="0 0 W H" fill="none" xmlns="http://www.w3.org/2000/svg">
<path opacity="0.5" d="M15.9998 2H14.9998C12.1714 2 10.7576 2.00023 9.87892 2.87891C9.00024 3.75759 9.00024 5.1718 9.00024 8.00023V16.0002C9.00024 18.8287 9.00024 20.2429 9.87892 21.1215C10.7574 22 12.1706 22 14.9976 22H14.9998H15.9998C18.8282 22 20.2424 22 21.1211 21.1213C21.9998 20.2426 21.9998 18.8284 21.9998 16V8C21.9998 5.17159 21.9998 3.75736 21.1211 2.87868C20.2424 2 18.8282 2 15.9998 2Z" fill="#fff"/>
<path fill-rule="evenodd" clip-rule="evenodd" d="M1.25098 11.999C1.25098 11.5848 1.58676 11.249 2.00098 11.249H13.9735L12.0129 9.56848C11.6984 9.29892 11.662 8.82544 11.9315 8.51095C12.2011 8.19645 12.6746 8.16003 12.9891 8.4296L16.4891 11.4296C16.6553 11.5721 16.751 11.7801 16.751 11.999C16.751 12.218 16.6553 12.426 16.4891 12.5685L12.9891 15.5685C12.6746 15.838 12.2011 15.8016 11.9315 15.4871C11.662 15.1726 11.6984 14.6991 12.0129 14.4296L13.9735 12.749H2.00098C1.58676 12.749 1.25098 12.4132 1.25098 11.999Z" fill="#fff"/>
</svg>
