<svg xmlns="http://www.w3.org/2000/svg" width="24" height="24" viewBox="0 0 W H" fill="none">
  <path opacity="0.5" d="M19.7165 20.363C21.143 19.5852 22 18.5879 22 17.5006C22 16.3481 21.0372 15.2967 19.4537 14.5006C17.6226 13.58 14.9617 13.0006 12 13.0006C9.03833 13.0006 6.37738 13.58 4.54631 14.5006C2.96285 15.2967 2 16.3481 2 17.5006C2 18.6531 2.96285 19.7045 4.54631 20.5006C6.37738 21.4212 9.03833 22.0006 12 22.0006C15.1066 22.0006 17.8823 21.3631 19.7165 20.363Z" fill="currentColor"/>
  <path fill-rule="evenodd" clip-rule="evenodd" d="M5 8.51525C5 4.91731 8.13401 2.00061 12 2.00061C15.866 2.00061 19 4.91731 19 8.51525C19 12.085 16.7658 16.2505 13.2801 17.7402C12.4675 18.0874 11.5325 18.0874 10.7199 17.7402C7.23416 16.2505 5 12.085 5 8.51525ZM12 11.0006C13.1046 11.0006 14 10.1052 14 9.00061C14 7.89604 13.1046 7.00061 12 7.00061C10.8954 7.00061 10 7.89604 10 9.00061C10 10.1052 10.8954 11.0006 12 11.0006Z" fill="currentColor"/>
</svg>