<svg xmlns="http://www.w3.org/2000/svg" width="24" height="24" viewBox="0 0 W H" fill="none">
  <path opacity="0.5" d="M2.75 2.00061C2.75 1.5864 2.41421 1.25061 2 1.25061C1.58579 1.25061 1.25 1.5864 1.25 2.00061V12.058C1.24999 14.3664 1.24998 16.1754 1.43975 17.5869C1.63399 19.0316 2.03933 20.1717 2.93414 21.0665C3.82895 21.9613 4.96897 22.3666 6.41371 22.5609C7.82519 22.7506 9.63423 22.7506 11.9426 22.7506H22C22.4142 22.7506 22.75 22.4148 22.75 22.0006C22.75 21.5864 22.4142 21.2506 22 21.2506H12C9.62178 21.2506 7.91356 21.249 6.61358 21.0742C5.33517 20.9024 4.56445 20.5755 3.9948 20.0058C3.42514 19.4361 3.09825 18.6654 2.92637 17.387C2.75159 16.087 2.75 14.3788 2.75 12.0006V2.00061Z" fill="currentColor"/>
  <path d="M19.5875 7.46705C19.8451 7.14268 19.791 6.6709 19.4666 6.41331C19.1422 6.15571 18.6705 6.20985 18.4129 6.53423L15.2948 10.4606C15.0496 10.7695 14.8887 10.9714 14.7562 11.1169C14.6265 11.2592 14.5657 11.2995 14.538 11.3143C14.3272 11.427 14.0754 11.4325 13.8599 11.3291C13.8316 11.3155 13.7691 11.2778 13.6334 11.1413C13.4946 11.0017 13.3251 10.807 13.0667 10.5091L13.0505 10.4905C12.8127 10.2163 12.6098 9.98252 12.4309 9.80248C12.2448 9.61533 12.0414 9.44074 11.7894 9.31982C11.143 9.00962 10.3875 9.02605 9.75521 9.36406C9.50875 9.49582 9.3131 9.67909 9.13539 9.87415C8.96444 10.0618 8.77195 10.3042 8.54622 10.5884L5.4127 14.5342C5.15511 14.8586 5.20924 15.3304 5.53361 15.588C5.85798 15.8456 6.32976 15.7914 6.58735 15.4671L9.70554 11.5406C9.9508 11.2318 10.1117 11.0298 10.2442 10.8843C10.3739 10.7421 10.4347 10.7017 10.4624 10.6869C10.6731 10.5742 10.925 10.5687 11.1405 10.6721C11.1688 10.6857 11.2313 10.7234 11.367 10.8599C11.5057 10.9995 11.6752 11.1943 11.9337 11.4921L11.9499 11.5108C12.1877 11.7849 12.3906 12.0187 12.5695 12.1988C12.7555 12.3859 12.959 12.5605 13.2109 12.6814C13.8573 12.9916 14.6129 12.9752 15.2452 12.6372C15.4917 12.5054 15.6873 12.3221 15.865 12.1271C16.0359 11.9394 16.2284 11.697 16.4541 11.4128L19.5875 7.46705Z" fill="currentColor"/>
</svg>