<svg width="24" height="24" viewBox="0 0 W H" fill="none" xmlns="http://www.w3.org/2000/svg">
<path d="M14 4.5C14 5.88071 12.8807 7 11.5 7C10.1193 7 9 5.88071 9 4.5C9 3.11929 10.1193 2 11.5 2C12.8807 2 14 3.11929 14 4.5Z" fill="currentColor"/>
<path fill-rule="evenodd" clip-rule="evenodd" d="M18.9999 7.25C19.4141 7.25 19.7499 7.58579 19.7499 8V10.4943C19.7499 10.4978 19.7499 10.5014 19.7499 10.5049V22C19.7499 22.4142 19.4141 22.75 18.9999 22.75C18.5857 22.75 18.2499 22.4142 18.2499 22V12.1014C17.7654 12.5057 17.3799 12.8203 16.943 12.9798C16.3339 13.2022 15.6659 13.2022 15.0568 12.9798C14.6041 12.8146 14.2067 12.4828 13.6971 12.0574C13.6665 12.0319 13.6355 12.006 13.6041 11.9798L13.5228 11.912C13.2913 11.7191 13.2005 11.6439 13.0528 11.5412C12.7953 11.362 12.2965 11.1095 11.9997 11.0081C11.9452 10.9894 11.9035 10.9746 11.8714 10.9625C11.8656 10.9602 11.8594 10.9578 11.8529 10.9553C11.6735 10.911 11.557 10.8829 11.467 10.8656C11.4165 10.856 11.3883 10.8526 11.3753 10.8515C11.3708 10.8529 11.3645 10.8552 11.3562 10.8586C11.33 10.8695 11.2969 10.8872 11.2624 10.9116C11.2279 10.9359 11.2 10.9611 11.181 10.9822C11.1721 10.992 11.1671 10.9987 11.1648 11.0019C11.162 11.0092 11.1582 11.0215 11.1533 11.0496C11.1438 11.1029 11.1363 11.1738 11.1216 11.3208L10.9594 12.9425C10.8659 13.8771 10.8553 14.127 10.9206 14.3356C10.9588 14.4577 11.0155 14.5732 11.0887 14.6781C11.2138 14.8574 11.418 15.0019 12.2145 15.4997C12.25 15.5219 12.2852 15.5438 12.3198 15.5655C13.1157 16.0625 13.667 16.4067 14.0653 16.9015C14.265 17.1497 14.4323 17.4222 14.5631 17.7127C14.824 18.2918 14.8813 18.9392 14.9641 19.8739C14.9677 19.9146 14.9714 19.9558 14.9751 19.9976L15.1473 21.9335C15.184 22.3461 14.8793 22.7103 14.4668 22.747C14.0542 22.7838 13.69 22.479 13.6532 22.0665L13.481 20.1306C13.3825 19.0236 13.3393 18.6479 13.1955 18.3287C13.117 18.1545 13.0166 17.9909 12.8968 17.842C12.6773 17.5693 12.3619 17.3607 11.4195 16.7717C11.3818 16.7481 11.3446 16.7249 11.3078 16.702C10.678 16.3092 10.1821 16 9.85874 15.5368C9.69764 15.306 9.57292 15.0519 9.48893 14.7833C9.32033 14.2441 9.37906 13.6626 9.45364 12.9242C9.458 12.8811 9.46241 12.8374 9.46683 12.7932L9.62899 11.1716C9.63058 11.1557 9.63214 11.1397 9.63372 11.1236C9.65626 10.8934 9.68114 10.6394 9.80321 10.3722C9.93926 10.0745 10.177 9.84157 10.3978 9.68582C10.6186 9.53007 10.9177 9.38431 11.2439 9.35606C11.4279 9.34012 11.5997 9.36376 11.7494 9.39245C11.8931 9.42 12.0646 9.46243 12.2562 9.50983L12.2816 9.51611C12.2816 9.51611 12.2915 9.5186 12.3004 9.52104C12.305 9.5223 12.3155 9.5252 12.3285 9.5293C12.3372 9.53204 12.3707 9.54259 12.411 9.56068C12.4162 9.56301 12.4229 9.56609 12.4309 9.56995C12.4438 9.57455 12.4614 9.58069 12.4848 9.58868C12.9136 9.73524 13.5376 10.0511 13.9095 10.3099C14.1146 10.4526 14.2516 10.5668 14.471 10.7496L14.483 10.7597L14.5644 10.8275C15.2129 11.3679 15.397 11.5072 15.5712 11.5708C15.8481 11.6719 16.1517 11.6719 16.4286 11.5708C16.6028 11.5072 16.7869 11.3679 17.4354 10.8275L18.2499 10.1487V8C18.2499 7.58579 18.5857 7.25 18.9999 7.25ZM12.3695 10.9465C12.3695 10.9465 12.3718 10.9456 12.3749 10.9444C12.3667 10.9476 12.3632 10.9488 12.3695 10.9465ZM11.8289 9.54727L11.831 9.54647C11.8354 9.54473 11.8442 9.54141 11.8378 9.54382C11.8378 9.54382 11.8336 9.54541 11.8289 9.54727Z" fill="currentColor"/>
<g opacity="0.5">
<path d="M8.71151 9.76303C8.8425 10.156 8.63013 10.5807 8.23717 10.7117L6.56517 11.269C6.07836 11.4313 5.75 11.8869 5.75 12.4C5.75 12.4838 5.79731 12.5603 5.87221 12.5978L8.33541 13.8294C8.70589 14.0146 8.85606 14.4651 8.67082 14.8356C8.48558 15.2061 8.03507 15.3563 7.66459 15.171L5.20139 13.9394C4.61832 13.6479 4.25 13.0519 4.25 12.4C4.25 11.2412 4.9915 10.2125 6.09083 9.84602L7.76283 9.28869C8.15579 9.15771 8.58053 9.37008 8.71151 9.76303Z" fill="currentColor"/>
<path d="M9.41611 16.8762C9.76075 17.1059 9.85388 17.5716 9.62412 17.9162L6.62412 22.4162C6.39435 22.7609 5.9287 22.854 5.58405 22.6242C5.23941 22.3945 5.14628 21.9288 5.37604 21.5842L8.37604 17.0842C8.60581 16.7395 9.07146 16.6464 9.41611 16.8762Z" fill="currentColor"/>
</g>
</svg>
