<svg xmlns="http://www.w3.org/2000/svg" width="24" height="24" viewBox="0 0 24 24" fill="none">
  <path d="M3 6.52405C3 6.12956 3.32671 5.80976 3.72973 5.80976H8.51787C8.52437 4.96854 8.61554 3.81528 9.45037 3.01692C10.1074 2.38863 11.0081 2.00024 12 2.00024C12.9919 2.00024 13.8926 2.38863 14.5496 3.01692C15.3844 3.81528 15.4756 4.96854 15.4821 5.80976H20.2703C20.6733 5.80976 21 6.12956 21 6.52405C21 6.91854 20.6733 7.23834 20.2703 7.23834H3.72973C3.32671 7.23834 3 6.91854 3 6.52405Z" fill="currentColor"/>
  <path opacity="0.5" d="M11.5956 22.0003H12.4044C15.1871 22.0003 16.5785 22.0003 17.4831 21.1144C18.3878 20.2285 18.4803 18.7753 18.6654 15.8688L18.9321 11.6809C19.0326 10.1039 19.0828 9.31548 18.6289 8.81582C18.1751 8.31616 17.4087 8.31616 15.876 8.31616H8.12405C6.59127 8.31616 5.82488 8.31616 5.37105 8.81582C4.91722 9.31548 4.96744 10.1039 5.06788 11.6809L5.33459 15.8688C5.5197 18.7753 5.61225 20.2285 6.51689 21.1144C7.42153 22.0003 8.81289 22.0003 11.5956 22.0003Z" fill="currentColor"/>
  <path fill-rule="evenodd" clip-rule="evenodd" d="M9.42543 11.4818C9.83759 11.4384 10.2051 11.755 10.2463 12.1888L10.7463 17.452C10.7875 17.8858 10.4868 18.2727 10.0747 18.3161C9.66253 18.3595 9.29499 18.0429 9.25378 17.6091L8.75378 12.3459C8.71256 11.9121 9.01327 11.5252 9.42543 11.4818Z" fill="currentColor"/>
  <path fill-rule="evenodd" clip-rule="evenodd" d="M14.5747 11.4818C14.9868 11.5252 15.2875 11.9121 15.2463 12.3459L14.7463 17.6091C14.7051 18.0429 14.3376 18.3595 13.9254 18.3161C13.5133 18.2727 13.2126 17.8858 13.2538 17.452L13.7538 12.1888C13.795 11.755 14.1625 11.4384 14.5747 11.4818Z" fill="currentColor"/>
</svg>