<svg width="24" height="24" viewBox="0 0 W H" fill="none" xmlns="http://www.w3.org/2000/svg">
<rect width="24" height="24" fill=""/>
<g id="Navigation Icons">
<rect x="-19.5" y="-63.5" width="63" height="371" rx="4.5" stroke="currentColor" stroke-dasharray="10 5"/>
<g id="Property 1=Users">
<path id="Vector" d="M15.5 7.5C15.5 9.433 13.933 11 12 11C10.067 11 8.5 9.433 8.5 7.5C8.5 5.567 10.067 4 12 4C13.933 4 15.5 5.567 15.5 7.5Z" fill="currentColor"/>
<path id="Vector_2" d="M18 16.5C18 18.433 15.3137 20 12 20C8.68629 20 6 18.433 6 16.5C6 14.567 8.68629 13 12 13C15.3137 13 18 14.567 18 16.5Z" fill="currentColor"/>
<path id="Vector_3" d="M7.12207 5C7.29953 5 7.47278 5.01741 7.64007 5.05056C7.23251 5.77446 7.00002 6.61008 7.00002 7.5C7.00002 8.36825 7.22133 9.18482 7.61061 9.89636C7.45247 9.92583 7.28913 9.94126 7.12207 9.94126C5.70765 9.94126 4.56104 8.83512 4.56104 7.47063C4.56104 6.10614 5.70765 5 7.12207 5Z" fill="currentColor"/>
<path id="Vector_4" d="M5.44734 18.986C4.87942 18.3071 4.5 17.474 4.5 16.5C4.5 15.5558 4.85657 14.744 5.39578 14.0767C3.4911 14.2245 2 15.2662 2 16.5294C2 17.8044 3.5173 18.8538 5.44734 18.986Z" fill="currentColor"/>
<path id="Vector_5" d="M16.9999 7.5C16.9999 8.36825 16.7786 9.18482 16.3893 9.89636C16.5475 9.92583 16.7108 9.94126 16.8779 9.94126C18.2923 9.94126 19.4389 8.83512 19.4389 7.47063C19.4389 6.10614 18.2923 5 16.8779 5C16.7004 5 16.5272 5.01741 16.3599 5.05056C16.7674 5.77446 16.9999 6.61008 16.9999 7.5Z" fill="currentColor"/>
<path id="Vector_6" d="M18.5525 18.986C20.4825 18.8538 21.9998 17.8044 21.9998 16.5294C21.9998 15.2662 20.5087 14.2245 18.604 14.0767C19.1432 14.744 19.4998 15.5558 19.4998 16.5C19.4998 17.474 19.1204 18.3071 18.5525 18.986Z" fill="currentColor"/>
</g>
</g>
</svg>
